PathFileType	4	(X/Y/Z)	Kaydara	
DataRate	CameraRate	NumFrames	NumMarkers	Units	OrigDataRate	OrigDataStartFrame	OrigNumFrames	
120.00	120.00	4	72	mm	120.00	229	261	
Frame#	Time	Hips			RightUpLeg			RightLeg			RightFoot			RightFoot_End			LeftUpLeg			LeftLeg			LeftFoot			LeftFoot_End			Spine			Spine1			Spine2			Spine3			Neck			Head			Head_End			RightShoulder			RightArm			RightForeArm			RightHand			RightHandThumb1			RightHandThumb2			RightHandThumb3			RightHandThumb3_End			RightInHandIndex			RightHandIndex1			RightHandIndex2			RightHandIndex3			RightHandIndex3_End			RightInHandMiddle			RightHandMiddle1			RightHandMiddle2			RightHandMiddle3			RightHandMiddle3_End			RightInHandRing			RightHandRing1			RightHandRing2			RightHandRing3			RightHandRing3_End			RightInHandPinky			RightHandPinky1			RightHandPinky2			RightHandPinky3			RightHandPinky3_End			LeftShoulder			LeftArm			LeftForeArm			LeftHand			LeftHandThumb1			LeftHandThumb2			LeftHandThumb3			LeftHandThumb3_End			LeftInHandIndex			LeftHandIndex1			LeftHandIndex2			LeftHandIndex3			LeftHandIndex3_End			LeftInHandMiddle			LeftHandMiddle1			LeftHandMiddle2			LeftHandMiddle3			LeftHandMiddle3_End			LeftInHandRing			LeftHandRing1			LeftHandRing2			LeftHandRing3			LeftHandRing3_End			LeftInHandPinky			LeftHandPinky1			LeftHandPinky2			LeftHandPinky3			LeftHandPinky3_End			
		X1	Y1	Z1	X2	Y2	Z2	X3	Y3	Z3	X4	Y4	Z4	X5	Y5	Z5	X6	Y6	Z6	X7	Y7	Z7	X8	Y8	Z8	X9	Y9	Z9	X10	Y10	Z10	X11	Y11	Z11	X12	Y12	Z12	X13	Y13	Z13	X14	Y14	Z14	X15	Y15	Z15	X16	Y16	Z16	X17	Y17	Z17	X18	Y18	Z18	X19	Y19	Z19	X20	Y20	Z20	X21	Y21	Z21	X22	Y22	Z22	X23	Y23	Z23	X24	Y24	Z24	X25	Y25	Z25	X26	Y26	Z26	X27	Y27	Z27	X28	Y28	Z28	X29	Y29	Z29	X30	Y30	Z30	X31	Y31	Z31	X32	Y32	Z32	X33	Y33	Z33	X34	Y34	Z34	X35	Y35	Z35	X36	Y36	Z36	X37	Y37	Z37	X38	Y38	Z38	X39	Y39	Z39	X40	Y40	Z40	X41	Y41	Z41	X42	Y42	Z42	X43	Y43	Z43	X44	Y44	Z44	X45	Y45	Z45	X46	Y46	Z46	X47	Y47	Z47	X48	Y48	Z48	X49	Y49	Z49	X50	Y50	Z50	X51	Y51	Z51	X52	Y52	Z52	X53	Y53	Z53	X54	Y54	Z54	X55	Y55	Z55	X56	Y56	Z56	X57	Y57	Z57	X58	Y58	Z58	X59	Y59	Z59	X60	Y60	Z60	X61	Y61	Z61	X62	Y62	Z62	X63	Y63	Z63	X64	Y64	Z64	X65	Y65	Z65	X66	Y66	Z66	X67	Y67	Z67	X68	Y68	Z68	X69	Y69	Z69	X70	Y70	Z70	X71	Y71	Z71	X72	Y72	Z72	

229	1.9	2081.203	893.81699	129.612	2073.222921232985	848.3195607101586	69.960409863879	2007.6811220604518	439.758660227799	38.441985090705046	2123.5233862657974	122.21517752106016	-129.69778507164926	2068.0342383737147	11.549995717995774	7.672879474986764	2099.9738614532475	912.5244148155999	203.04331723287828	1987.9775966961042	521.8047633188335	300.8551523828707	1881.9733341074536	93.70446773454047	343.08416852529507	1739.9494248147466	14.254157522372727	244.63350049919245	2040.8228096811847	1017.4670889109427	70.71770735698952	1989.4035912869979	1085.7723362692889	24.917489000218275	1930.8403754483493	1152.2370992084695	-23.457360726073965	1867.4559864313585	1207.9799094197792	-70.56074297269633	1799.0851933325625	1268.0537721872122	-119.56741629240935	1735.2988538899183	1322.2609914412362	-161.3028681761635	1596.3159246359637	1399.4075735507263	-162.40281978648986	1817.090160732535	1231.1868989915358	-114.97041591287393	1791.8700018649886	1166.7294407377256	-132.19663949311945	1842.924883539683	1079.0522084354473	6.105183031802293	1772.0063900774778	998.8301193301311	99.87906702020545	1773.258229488701	1009.0346071784702	101.9524176904372	1773.8318817877025	1007.6217731931592	111.84001124036918	1773.7914635690095	1003.7125709239124	120.54489362551887	1773.381437160058	997.9511178793413	129.35801642407782	1771.7305017708536	999.811055276854	108.55408730213496	1769.9613962427609	989.04519501272	129.03498516221248	1769.080767601923	979.8084848084642	143.87392308826315	1769.22129494232	976.3266532802148	150.34997310407869	1769.8016856390095	974.9696102490773	153.85569614560526	1770.6122456868645	992.1464845682573	112.81691956183614	1768.2817552401007	977.5005158609852	135.0989689346344	1767.1794370428631	966.4428442423479	151.78797269877623	1767.2811361699682	961.7725618016219	159.83946525129605	1767.8832129035786	960.0594237975122	163.79123951925754	1769.8605639425014	987.0026413090839	115.31598082021173	1767.099598807521	969.4013137397576	137.48381423744848	1765.9980652621869	958.7863251655383	152.50254166716127	1766.021415271326	953.7625766398202	160.51977225215495	1766.5521011206952	951.9059142141739	164.35434666842096	1769.098915335794	981.4139475553015	117.52404902597719	1766.0736852094549	961.8093172442482	139.25773058394262	1764.9841161862314	951.8616343037888	151.92461576810567	1764.9007739863828	947.4970497107844	158.08222041278043	1765.3131085470718	945.4493476333996	161.65732596199396	1826.1534797717243	1264.7296622260596	-90.50185637143686	1850.3580633270108	1309.3213301492224	-43.46441465470103	1871.7150058502718	1141.7260053515117	40.461719856473735	1835.5201549251992	1017.5379543833355	97.2219046942807	1829.332390630237	1028.7251964193529	90.164026002986	1825.0618686771668	1026.3744906059621	87.47507487121486	1822.6530654706926	1021.6780552802725	87.92889981141406	1821.1284564125053	1015.1456028746588	90.29742589739247	1830.6841317750914	1019.2777947639885	98.1148474697901	1825.8512485883944	1008.4524384640055	106.98750294006082	1823.057393302606	998.2839977709949	111.77960800855853	1821.5475910622683	993.8480578093114	111.41649726121803	1820.4511466258805	991.4484453260358	108.86142769467429	1832.4166270432565	1011.208256196572	104.06779351692391	1828.6397241769428	996.285463012608	115.9422628336801	1825.8360603315236	984.1567360390706	121.92637242187894	1824.1321034438272	978.3092690644133	121.85057291635111	1822.989547478809	975.4426928649004	119.23097390837438	1833.7609128470685	1005.7879769551909	108.07814386932111	1831.5340716560265	987.7224440572463	122.29204236039126	1829.3467782674188	976.1186979511114	128.26041394277823	1827.8393363300502	969.930149840111	128.5869652434825	1826.8295650240495	966.9750688269298	126.313274281537	1835.4743057700032	999.818171981629	112.1989514407148	1834.4763713337127	979.5801546176315	127.88323722447831	1833.134589283057	968.7565576673734	133.77441723678317	1832.233256782056	963.5016406030372	134.5504800187115	1831.4528275039756	960.4574903488348	132.845916197418
230	1.908	2081.203	893.81699	129.612	2072.204378316205	847.8960089151869	69.83799017408833	2007.5975521249431	439.24962147822396	37.97230534002459	2124.2589922893285	122.37013921111888	-131.6503831924762	2069.183136899759	10.948977616706827	5.306628120251696	2101.0140031478923	912.943102429273	203.14137334628452	1989.0353404403775	522.129939078806	300.60577033124224	1883.2321179520904	93.65104693869742	341.6535974686601	1741.242585480507	13.840765661350703	243.37171854251713	2040.826387155975	1017.4853695557407	70.73278389117428	1989.4540895468158	1085.8835130228106	25.02657782222723	1930.9380244097526	1152.4675053327633	-23.232581924161284	1867.5738941554007	1208.3494794401156	-70.19121671824732	1799.2356602113696	1268.569488897774	-119.05503352459985	1735.5099290224348	1322.9002985528152	-160.7415798493564	1596.6054048478916	1400.1923976488656	-161.50740386957295	1816.9863325875906	1231.3354972632537	-114.64640611819213	1790.6461693279741	1165.6882935000754	-131.40697698815714	1838.867948068338	1077.013458961658	10.179133881671747	1765.3813144710125	993.8840967221886	105.47088566450896	1765.271082754094	1003.1237224266791	108.08837521950048	1765.2380051727919	1001.423043468669	118.66700537250082	1764.9134198737493	997.3127126115344	127.80000918138995	1764.3848515681389	991.3830174021891	136.92459801700127	1764.0617324077364	993.7219629527484	114.52535954535095	1761.4386524079075	981.584670109485	135.49396220346483	1760.2448313856949	971.859754809988	150.80154378508558	1760.2985006716801	968.4372619159155	157.6453130735769	1760.8797486947237	967.3740804303106	161.50691513363986	1763.3628676253145	986.1254587868688	118.63288938087197	1760.4262006962258	970.1785185370019	141.30659105180433	1759.0405859060559	958.6021323578492	158.48506393589545	1759.0655523489909	954.0101580389228	166.96968391605415	1759.6822041590358	952.6218349756223	171.30574525403114	1762.9271516430108	981.0596919064058	121.00822256121205	1759.891020564397	962.3455478038208	143.41507836300056	1758.6032948593383	951.2948673647126	158.83743022323836	1758.5848760447952	946.3553821146687	167.26023827245695	1759.1445509657829	944.8082635544904	171.45034730531287	1762.5711203830356	975.6401847302319	123.07186350286224	1759.5361759882846	955.1019343781674	144.9306539053307	1758.3934749708785	944.8358868903556	157.88383677564894	1758.3260849749615	940.547525483993	164.31941893473717	1758.7908158072853	938.7825225453882	168.1991968232364	1826.528931615077	1265.5210030502005	-89.87660650415334	1851.7588215363025	1311.427930504194	-42.742284650758315	1871.5396292858622	1142.6373535819152	43.1906419023647	1832.8901392020798	1017.4632264169917	101.76320769850578	1826.4901405323506	1028.5965694249783	94.56959452644041	1821.8802544816895	1026.2008682401151	91.73523314451845	1819.218741439428	1021.4884532557966	92.13856474647373	1817.4694507645436	1014.9558087063333	94.50842777710417	1827.766983069342	1019.2028797515345	102.7067115567564	1822.4203664443328	1008.4185104133875	111.77241283934327	1819.2515175502892	998.2592734231151	116.60939020457126	1817.55219050041	993.8027587855539	116.1687384485739	1816.3282861663843	991.3683833243194	113.47836158394885	1829.4719965362983	1011.1727507577837	108.78677512241231	1825.1791463758461	996.3112616545276	120.91831869234572	1821.9643113284665	984.197617592892	126.96743132030703	1820.0307458412678	978.3277528279058	126.80577275322237	1818.748260630683	975.4243154907324	124.04186486093066	1830.8099408338248	1005.7795727351796	112.88328808229967	1828.115116634769	987.7934010350612	127.40611094972222	1825.5682269421222	976.2078610615068	133.44710692079894	1823.838664529898	970.000388598115	133.69932446717178	1822.6970209613235	967.011919717483	131.29396386398838	1832.5311597849977	999.83741907829	117.08773768678874	1831.108542743498	979.6902754676792	133.11128175988713	1829.4789640953104	968.8887913183167	139.08417714557766	1828.4156860395462	963.6237159392763	139.8174143351281	1827.5184813433189	960.5520891557403	138.0027714096137
231	1.917	2081.203	893.81699	129.612	2071.0687917862824	847.4785049301456	69.83024354516768	2007.5613982412078	438.74671436385773	37.460528413092156	2124.9975590241893	122.51706039631145	-133.63692539007144	2070.3939109689227	10.495490853188883	3.049445999816494	2102.1605216102926	913.3621557968108	203.1415568166409	1990.091899536576	522.497789723602	300.2974848918732	1884.4554854378157	93.65468451057755	340.2308146167727	1742.5512515901696	13.468594825599688	242.0634399900669	2040.8778389268966	1017.4622663561396	70.65837454294798	1989.4812618173157	1085.9583024319704	25.127170280636417	1930.9281376806491	1152.6770366889007	-22.893566039135486	1867.5007191077432	1208.737106048056	-69.53050167141919	1799.108280156524	1269.1364819123066	-118.07338931895619	1735.434620826551	1323.6928990626732	-159.53687226727814	1596.6192348902996	1401.1503181570647	-159.96840799037497	1816.52190448738	1231.580203269802	-113.66187223118021	1789.054561991052	1164.7494167193508	-130.0049990692724	1834.830527110871	1075.4621851104023	14.773485656331532	1757.8424322953895	986.1959675511418	110.28806686844428	1757.3746711503936	995.3010419719591	113.16003730084404	1757.193357899685	993.5348455843703	124.25648378196529	1756.7634314967706	989.3785651461259	133.76802141730712	1756.1452394596963	983.41027891807	143.2235217833295	1756.096220811598	985.8761235403787	119.66873779275488	1752.937803566332	973.5383952115224	141.27126260776157	1751.524980738268	963.7255587774579	157.10495510238712	1751.570029144969	960.2925209226727	164.25864631799604	1752.2301784494903	959.2503678038252	168.36519297445577	1755.4175586153035	978.2881614177018	123.8070073922762	1751.9696139507616	962.150329469145	147.1156245670882	1750.349620795609	950.4798454706627	164.87029421836007	1750.3663919869339	945.8760319642478	173.72983012431152	1751.0704473227013	944.5111512075836	178.33440053531297	1755.0080880847217	973.232982482055	126.18726593163935	1751.5316305118438	954.3552985841714	149.1655930710704	1750.0451373520605	943.2247855248094	165.09131372447357	1750.0217474166257	938.2750474068683	173.87637476249355	1750.6649886061969	936.7505147387429	178.31923996600844	1754.7110559656055	967.8359311540618	128.24308786763856	1751.302802904131	947.1595704743197	150.61934220483863	1750.0114812043082	936.8337334988112	163.97492301810334	1749.9455648285953	932.5398898712068	170.67440804680658	1750.4872595889485	930.7960507879749	174.7778948747198	1826.7799962402553	1266.3043677660403	-89.09343271186965	1853.0494303115452	1313.519016111307	-41.8391780294215	1871.2260356356544	1143.3752562564816	45.984640417199536	1830.153474509758	1017.2127346880408	106.41535421163941	1823.393109062306	1027.9103094586048	99.28991244712041	1818.4555172021492	1025.2341174705623	96.17651466790582	1815.5682270952043	1020.3340321993076	96.38119320050124	1813.632792446471	1013.6514948022503	98.58173350612624	1824.636549933426	1018.4829776745313	107.45301896959802	1818.7363944819754	1007.1011465989047	116.49372998323344	1815.2307282039508	996.6389877366219	121.12486190808465	1813.3895371248345	992.0962140820079	120.45826178276648	1812.093760450162	989.6592877168442	117.5147827895162	1826.369746910224	1010.4998524799416	113.51320136657051	1821.5522246551186	995.081005496274	125.60966830243308	1817.9754268977472	982.6450961231541	131.4313812986861	1815.8733825751794	976.6751345851911	130.99579523351386	1814.5135566109277	973.7708405423898	127.9543059632972	1827.7411449867536	1005.1539118616721	117.5981877350427	1824.6034361860688	986.7056887921495	132.08506483716096	1821.7475894731915	974.8486187674902	137.92505999987463	1819.8589795608646	968.5495622236956	137.91155934802234	1818.6462631743814	965.5626398166838	135.24449233269476	1829.5215667066761	999.2930800463191	121.77526313234647	1827.7270972405022	978.7680155321879	137.75526596741796	1825.862242717375	967.7657153282088	143.56296974150777	1824.688819199956	962.4418802636749	144.10034952901717	1823.7320306891145	959.376248692317	142.05269564356308
232	1.925	2081.203	893.81699	129.612	2070.516994487782	847.0117048998901	69.36526080089843	2007.5977446703066	438.19477910792176	37.01473729888546	2125.7709325586543	122.5642508339659	-135.50195707495698	2071.709571810764	10.168139240958052	1.1370402127478236	2102.660731168845	913.8339014165678	203.6394058013199	1990.5130793928417	522.9234704383318	300.53352409213244	1884.971887128262	93.73757222510399	339.35441898790276	1743.151053361486	13.166031998250679	241.3157280202352	2041.210694465678	1017.4502818037669	70.49708116596474	1989.7211053709354	1085.9833267207516	25.121560108480825	1931.033165184812	1152.7597168141	-22.65238667295529	1867.4404690701535	1208.9171679257186	-68.91796764892304	1798.8880882070052	1269.4048776100901	-117.09679288632596	1735.267745375546	1324.2162811285425	-158.2809290884496	1596.4741406867806	1401.715029959072	-158.58920878758113	1815.9376940808174	1231.588040739889	-112.45132495521973	1787.326155974083	1163.5745579117593	-128.44704048698011	1834.7420668286327	1077.7305427774013	17.7564259140391	1753.9518281761796	984.5371055736905	113.99550420876402	1755.6916662473009	995.2307233409822	116.36017470859507	1756.5409905892038	993.7776242414677	127.50193154916461	1756.4985250584632	989.8696289943352	137.23459013406526	1755.92081462115	984.1341821000492	147.03659877790847	1753.4742044835793	986.230576457665	123.50405448701059	1750.8461001696771	976.3428743085187	145.99573741912823	1749.576049296387	967.3235535303452	162.43658718052845	1749.8135328081955	963.6687935504151	169.7379714107313	1750.7028981458107	961.9608141222286	173.81175255864122	1751.8680595057094	978.5962552949487	128.12641547668673	1748.4357518763354	964.8232859675936	152.56414500602023	1746.8471700505613	954.003481468546	171.04232566382947	1747.0364143099232	949.1248789656763	180.10929927792802	1747.9622588584539	947.0279059180394	184.69224483206665	1750.7900364738869	973.4557398726383	130.82753380520924	1746.7479469540017	956.652451360309	155.10078407762728	1745.1616711545898	946.2440203924732	171.7176458825898	1745.237125247235	941.0189347518002	180.73493733354226	1746.056899375558	938.8011659718142	185.17270987624818	1749.7051635427667	967.8110517345375	133.215317514565	1745.2934161136939	948.9187913242514	156.98935385032968	1743.7262672138406	939.1318232680557	170.98715033604245	1743.6376798799727	934.6181086463342	177.8989657021714	1744.2812108824953	932.2492247765736	182.02264854680845	1827.045776164678	1266.7963538643319	-88.5778738627139	1854.3201032724194	1315.3351061971864	-41.2082767828519	1870.6890860887436	1143.9655714519595	48.541360460501885	1827.1601955396404	1016.8083871227806	110.78788502088922	1820.09142346918	1027.114666011816	103.78355977171266	1814.8302668361737	1024.206992347411	100.44769638103995	1811.7163325291608	1019.1505163403033	100.49125095355996	1809.590821787551	1012.3417282537206	102.55217122732843	1821.2972829867044	1017.6468790815505	111.97076592540895	1814.8831830946613	1005.7175076787253	121.0579229471053	1811.0441982086963	994.9907772632148	125.53331556832171	1809.050089708893	990.3860239180472	124.66810029197185	1807.664383339174	987.9669264956805	121.49157134268937	1823.0459294719476	1009.7014467292389	118.00353386291476	1817.7354814867376	993.7688935608696	130.13052839727465	1813.7986946604915	981.0511838869194	135.77828609749852	1811.513962253884	975.0097435674621	135.10116464837202	1810.0566123918395	972.126568734421	131.8037461935937	1824.44100438316	1004.3948465812426	122.06984295784417	1820.881033373947	985.5166998152534	136.57335932170335	1817.7160267509937	973.421880687901	142.25758571175982	1815.6536428376844	967.0580586481548	142.00888604120792	1814.350385970097	964.0929758091011	139.1001359544029	1826.2664243656577	998.6051417535539	126.20924921351222	1824.1110345195348	977.7251979678462	142.18761192108136	1822.0076310483707	966.5466807919723	147.86400238495003	1820.711821201158	961.1824618314578	148.2266478138735	1819.6773409193142	958.1401172500765	145.9630690054673
